<?xml version="1.0" encoding="UTF-8"?>
<svg xmlns="http://www.w3.org/2000/svg" version="1.1" width="10" height="10" viewBox="0 0 10 10"><rect x="0" y="0" width="10" height="10" fill="#ffffff"/><g transform="scale(0.476)"><g transform="translate(0,0)"><path fill-rule="evenodd" d="M9 0L9 3L8 3L8 5L9 5L9 4L10 4L10 7L9 7L9 6L8 6L8 7L9 7L9 10L8 10L8 11L7 11L7 10L6 10L6 9L8 9L8 8L5 8L5 9L2 9L2 8L0 8L0 9L1 9L1 11L3 11L3 12L4 12L4 13L5 13L5 11L4 11L4 10L6 10L6 11L7 11L7 12L6 12L6 13L7 13L7 12L8 12L8 16L9 16L9 18L10 18L10 19L8 19L8 21L9 21L9 20L11 20L11 21L12 21L12 20L11 20L11 18L10 18L10 17L11 17L11 16L12 16L12 18L13 18L13 16L14 16L14 15L16 15L16 14L15 14L15 12L14 12L14 13L10 13L10 12L9 12L9 10L10 10L10 11L12 11L12 10L13 10L13 11L14 11L14 10L15 10L15 9L14 9L14 10L13 10L13 4L12 4L12 3L10 3L10 1L11 1L11 2L12 2L12 1L13 1L13 0ZM11 5L11 7L12 7L12 5ZM10 8L10 9L11 9L11 10L12 10L12 8ZM16 8L16 12L17 12L17 13L18 13L18 14L19 14L19 15L17 15L17 17L16 17L16 16L15 16L15 17L16 17L16 19L15 19L15 18L14 18L14 19L15 19L15 21L16 21L16 20L19 20L19 21L20 21L20 20L19 20L19 19L21 19L21 18L19 18L19 17L20 17L20 16L19 16L19 15L20 15L20 14L21 14L21 11L20 11L20 9L18 9L18 8ZM17 10L17 11L19 11L19 10ZM0 12L0 13L1 13L1 12ZM18 12L18 13L19 13L19 14L20 14L20 13L19 13L19 12ZM9 14L9 16L10 16L10 14ZM11 14L11 15L12 15L12 14ZM13 14L13 15L14 15L14 14ZM18 16L18 17L19 17L19 16ZM18 18L18 19L19 19L19 18ZM13 20L13 21L14 21L14 20ZM0 0L0 7L7 7L7 0ZM1 1L1 6L6 6L6 1ZM2 2L2 5L5 5L5 2ZM14 0L14 7L21 7L21 0ZM15 1L15 6L20 6L20 1ZM16 2L16 5L19 5L19 2ZM0 14L0 21L7 21L7 14ZM1 15L1 20L6 20L6 15ZM2 16L2 19L5 19L5 16Z" fill="#000000"/></g></g></svg>
