<?xml version="1.0" encoding="UTF-8"?>
<svg xmlns="http://www.w3.org/2000/svg" version="1.1" width="200" height="200" viewBox="0 0 200 200"><rect x="0" y="0" width="200" height="200" fill="#b865b1"/><g transform="scale(9.524)"><g transform="translate(0,0)"><path fill-rule="evenodd" d="M11 0L11 3L12 3L12 4L10 4L10 1L8 1L8 2L9 2L9 3L8 3L8 4L10 4L10 5L8 5L8 7L9 7L9 6L10 6L10 8L6 8L6 9L7 9L7 10L6 10L6 11L5 11L5 10L4 10L4 11L3 11L3 12L2 12L2 9L5 9L5 8L0 8L0 9L1 9L1 10L0 10L0 11L1 11L1 13L8 13L8 15L9 15L9 16L8 16L8 21L10 21L10 20L9 20L9 19L11 19L11 17L9 17L9 16L10 16L10 15L9 15L9 14L11 14L11 15L12 15L12 17L13 17L13 18L12 18L12 19L13 19L13 20L12 20L12 21L16 21L16 19L15 19L15 18L17 18L17 19L18 19L18 20L19 20L19 21L20 21L20 20L19 20L19 19L18 19L18 18L20 18L20 17L18 17L18 16L19 16L19 15L20 15L20 14L21 14L21 13L20 13L20 12L19 12L19 11L20 11L20 10L21 10L21 9L20 9L20 8L19 8L19 9L20 9L20 10L18 10L18 11L16 11L16 10L17 10L17 9L18 9L18 8L17 8L17 9L16 9L16 8L15 8L15 11L16 11L16 12L14 12L14 11L13 11L13 10L10 10L10 11L12 11L12 12L9 12L9 13L8 13L8 12L6 12L6 11L8 11L8 9L10 9L10 8L11 8L11 9L14 9L14 8L13 8L13 5L12 5L12 4L13 4L13 3L12 3L12 2L13 2L13 1L12 1L12 0ZM11 6L11 7L12 7L12 6ZM4 11L4 12L5 12L5 11ZM13 12L13 13L12 13L12 14L13 14L13 15L14 15L14 16L13 16L13 17L14 17L14 16L17 16L17 14L19 14L19 12L16 12L16 13L14 13L14 12ZM13 13L13 14L14 14L14 15L15 15L15 14L14 14L14 13ZM16 13L16 14L17 14L17 13ZM17 17L17 18L18 18L18 17ZM14 19L14 20L15 20L15 19ZM0 0L0 7L7 7L7 0ZM1 1L1 6L6 6L6 1ZM2 2L2 5L5 5L5 2ZM14 0L14 7L21 7L21 0ZM15 1L15 6L20 6L20 1ZM16 2L16 5L19 5L19 2ZM0 14L0 21L7 21L7 14ZM1 15L1 20L6 20L6 15ZM2 16L2 19L5 19L5 16Z" fill="#83ece0"/></g></g></svg>
