<?xml version="1.0" encoding="UTF-8"?>
<svg xmlns="http://www.w3.org/2000/svg" version="1.1" width="200" height="200" viewBox="0 0 200 200"><rect x="0" y="0" width="200" height="200" fill="#e26fbd"/><g transform="scale(9.524)"><g transform="translate(0,0)"><path fill-rule="evenodd" d="M10 0L10 1L11 1L11 0ZM12 0L12 2L13 2L13 0ZM8 2L8 3L9 3L9 2ZM10 2L10 3L11 3L11 2ZM12 3L12 4L11 4L11 5L10 5L10 4L9 4L9 6L8 6L8 8L4 8L4 9L3 9L3 8L0 8L0 9L1 9L1 11L4 11L4 9L5 9L5 13L7 13L7 12L6 12L6 11L8 11L8 9L9 9L9 10L10 10L10 9L11 9L11 12L10 12L10 11L9 11L9 12L8 12L8 17L9 17L9 18L8 18L8 21L9 21L9 19L10 19L10 18L11 18L11 19L12 19L12 21L14 21L14 20L13 20L13 19L15 19L15 20L16 20L16 21L17 21L17 20L18 20L18 16L17 16L17 17L15 17L15 18L13 18L13 16L12 16L12 15L13 15L13 14L12 14L12 12L13 12L13 13L14 13L14 12L13 12L13 11L12 11L12 9L13 9L13 10L14 10L14 11L15 11L15 10L16 10L16 14L14 14L14 15L19 15L19 18L20 18L20 19L19 19L19 21L21 21L21 20L20 20L20 19L21 19L21 18L20 18L20 15L21 15L21 12L20 12L20 11L21 11L21 9L19 9L19 8L18 8L18 9L15 9L15 8L12 8L12 9L11 9L11 6L12 6L12 7L13 7L13 6L12 6L12 5L13 5L13 3ZM9 6L9 9L10 9L10 6ZM2 9L2 10L3 10L3 9ZM6 9L6 10L7 10L7 9ZM14 9L14 10L15 10L15 9ZM17 10L17 13L19 13L19 14L20 14L20 13L19 13L19 11L18 11L18 10ZM2 12L2 13L4 13L4 12ZM9 12L9 17L10 17L10 16L11 16L11 15L12 15L12 14L10 14L10 12ZM11 17L11 18L12 18L12 17ZM16 19L16 20L17 20L17 19ZM0 0L0 7L7 7L7 0ZM1 1L1 6L6 6L6 1ZM2 2L2 5L5 5L5 2ZM14 0L14 7L21 7L21 0ZM15 1L15 6L20 6L20 1ZM16 2L16 5L19 5L19 2ZM0 14L0 21L7 21L7 14ZM1 15L1 20L6 20L6 15ZM2 16L2 19L5 19L5 16Z" fill="#3bc452"/></g></g></svg>
